<mxfile host="app.diagrams.net" modified="2023-11-19T22:21:24.120Z" agent="Mozilla/5.0 (Windows NT 10.0; Win64; x64) AppleWebKit/537.36 (KHTML, like Gecko) Chrome/119.0.0.0 Safari/537.36" etag="Mqi46IScOFN31rzkFIkT" version="22.1.3" type="device">
  <diagram name="Page-1" id="y-7j7uXp1MazJV9jhv6x">
    <mxGraphModel dx="1600" dy="770" grid="1" gridSize="10" guides="1" tooltips="1" connect="1" arrows="1" fold="1" page="1" pageScale="1" pageWidth="850" pageHeight="1100" math="0" shadow="0">
      <root>
        <mxCell id="0" />
        <mxCell id="1" parent="0" />
        <mxCell id="LFbSeWZXelefabh4vEKM-3" value="" style="edgeStyle=orthogonalEdgeStyle;rounded=0;orthogonalLoop=1;jettySize=auto;html=1;" edge="1" parent="1" source="LFbSeWZXelefabh4vEKM-1" target="LFbSeWZXelefabh4vEKM-2">
          <mxGeometry relative="1" as="geometry" />
        </mxCell>
        <mxCell id="LFbSeWZXelefabh4vEKM-39" value="" style="edgeStyle=orthogonalEdgeStyle;rounded=0;orthogonalLoop=1;jettySize=auto;html=1;" edge="1" parent="1" source="LFbSeWZXelefabh4vEKM-1" target="LFbSeWZXelefabh4vEKM-38">
          <mxGeometry relative="1" as="geometry" />
        </mxCell>
        <mxCell id="LFbSeWZXelefabh4vEKM-1" value="App.js" style="rounded=0;whiteSpace=wrap;html=1;" vertex="1" parent="1">
          <mxGeometry x="320" y="80" width="120" height="60" as="geometry" />
        </mxCell>
        <mxCell id="LFbSeWZXelefabh4vEKM-5" value="" style="edgeStyle=orthogonalEdgeStyle;rounded=0;orthogonalLoop=1;jettySize=auto;html=1;" edge="1" parent="1" source="LFbSeWZXelefabh4vEKM-2" target="LFbSeWZXelefabh4vEKM-4">
          <mxGeometry relative="1" as="geometry" />
        </mxCell>
        <mxCell id="LFbSeWZXelefabh4vEKM-24" style="edgeStyle=orthogonalEdgeStyle;rounded=0;orthogonalLoop=1;jettySize=auto;html=1;exitX=0.75;exitY=1;exitDx=0;exitDy=0;entryX=0.5;entryY=0;entryDx=0;entryDy=0;" edge="1" parent="1" source="LFbSeWZXelefabh4vEKM-2" target="LFbSeWZXelefabh4vEKM-10">
          <mxGeometry relative="1" as="geometry">
            <mxPoint x="560" y="360" as="targetPoint" />
          </mxGeometry>
        </mxCell>
        <mxCell id="LFbSeWZXelefabh4vEKM-25" style="edgeStyle=orthogonalEdgeStyle;rounded=0;orthogonalLoop=1;jettySize=auto;html=1;exitX=0.25;exitY=1;exitDx=0;exitDy=0;entryX=0.5;entryY=0;entryDx=0;entryDy=0;" edge="1" parent="1" source="LFbSeWZXelefabh4vEKM-2" target="LFbSeWZXelefabh4vEKM-6">
          <mxGeometry relative="1" as="geometry" />
        </mxCell>
        <mxCell id="LFbSeWZXelefabh4vEKM-27" value="" style="edgeStyle=orthogonalEdgeStyle;rounded=0;orthogonalLoop=1;jettySize=auto;html=1;" edge="1" parent="1" source="LFbSeWZXelefabh4vEKM-2" target="LFbSeWZXelefabh4vEKM-26">
          <mxGeometry relative="1" as="geometry" />
        </mxCell>
        <mxCell id="LFbSeWZXelefabh4vEKM-29" value="" style="edgeStyle=orthogonalEdgeStyle;rounded=0;orthogonalLoop=1;jettySize=auto;html=1;" edge="1" parent="1" source="LFbSeWZXelefabh4vEKM-2" target="LFbSeWZXelefabh4vEKM-28">
          <mxGeometry relative="1" as="geometry" />
        </mxCell>
        <mxCell id="LFbSeWZXelefabh4vEKM-2" value="&#xa;&lt;div style=&quot;color: rgb(204, 202, 194); background-color: rgb(31, 36, 48); font-family: Consolas, &amp;quot;Courier New&amp;quot;, monospace; font-weight: normal; font-size: 14px; line-height: 19px;&quot;&gt;&lt;div&gt;&lt;span style=&quot;color: #cccac2;&quot;&gt;&amp;nbsp; &amp;nbsp; &lt;/span&gt;&lt;span style=&quot;color: #5ccfe6;&quot;&gt;&amp;lt;&lt;/span&gt;&lt;span style=&quot;color: #73d0ff;&quot;&gt;CartProvider&lt;/span&gt;&lt;span style=&quot;color: #5ccfe6;&quot;&gt;&amp;gt;&lt;/span&gt;&lt;/div&gt;&lt;/div&gt;&#xa;&#xa;" style="rounded=0;whiteSpace=wrap;html=1;" vertex="1" parent="1">
          <mxGeometry x="320" y="220" width="120" height="60" as="geometry" />
        </mxCell>
        <mxCell id="LFbSeWZXelefabh4vEKM-4" value="&#xa;&lt;div style=&quot;color: rgb(204, 202, 194); background-color: rgb(31, 36, 48); font-family: Consolas, &amp;quot;Courier New&amp;quot;, monospace; font-weight: normal; font-size: 14px; line-height: 19px;&quot;&gt;&lt;div&gt;&lt;span style=&quot;color: #73d0ff;&quot;&gt;Cart&lt;/span&gt;&lt;/div&gt;&lt;/div&gt;&#xa;&#xa;" style="whiteSpace=wrap;html=1;rounded=0;" vertex="1" parent="1">
          <mxGeometry x="320" y="360" width="120" height="60" as="geometry" />
        </mxCell>
        <mxCell id="LFbSeWZXelefabh4vEKM-19" value="" style="edgeStyle=orthogonalEdgeStyle;rounded=0;orthogonalLoop=1;jettySize=auto;html=1;" edge="1" parent="1" source="LFbSeWZXelefabh4vEKM-6" target="LFbSeWZXelefabh4vEKM-18">
          <mxGeometry relative="1" as="geometry" />
        </mxCell>
        <mxCell id="LFbSeWZXelefabh4vEKM-6" value="&#xa;&lt;div style=&quot;color: rgb(204, 202, 194); background-color: rgb(31, 36, 48); font-family: Consolas, &amp;quot;Courier New&amp;quot;, monospace; font-weight: normal; font-size: 14px; line-height: 19px;&quot;&gt;&lt;div&gt;&lt;span style=&quot;color: #73d0ff;&quot;&gt;Header&lt;/span&gt;&lt;/div&gt;&lt;/div&gt;&#xa;&#xa;" style="whiteSpace=wrap;html=1;rounded=0;" vertex="1" parent="1">
          <mxGeometry x="130" y="360" width="120" height="60" as="geometry" />
        </mxCell>
        <mxCell id="LFbSeWZXelefabh4vEKM-30" style="edgeStyle=orthogonalEdgeStyle;rounded=0;orthogonalLoop=1;jettySize=auto;html=1;exitX=0.75;exitY=1;exitDx=0;exitDy=0;entryX=0.5;entryY=0;entryDx=0;entryDy=0;" edge="1" parent="1" source="LFbSeWZXelefabh4vEKM-10" target="LFbSeWZXelefabh4vEKM-14">
          <mxGeometry relative="1" as="geometry" />
        </mxCell>
        <mxCell id="LFbSeWZXelefabh4vEKM-46" style="edgeStyle=orthogonalEdgeStyle;rounded=0;orthogonalLoop=1;jettySize=auto;html=1;exitX=0.5;exitY=1;exitDx=0;exitDy=0;entryX=0.5;entryY=0;entryDx=0;entryDy=0;" edge="1" parent="1" source="LFbSeWZXelefabh4vEKM-10" target="LFbSeWZXelefabh4vEKM-12">
          <mxGeometry relative="1" as="geometry" />
        </mxCell>
        <mxCell id="LFbSeWZXelefabh4vEKM-10" value="&lt;div style=&quot;color: rgb(204, 202, 194); background-color: rgb(31, 36, 48); font-family: Consolas, &amp;quot;Courier New&amp;quot;, monospace; font-size: 14px; line-height: 19px;&quot;&gt;Meals&lt;/div&gt;" style="whiteSpace=wrap;html=1;rounded=0;" vertex="1" parent="1">
          <mxGeometry x="520" y="360" width="120" height="60" as="geometry" />
        </mxCell>
        <mxCell id="LFbSeWZXelefabh4vEKM-12" value="&#xa;&lt;div style=&quot;color: rgb(204, 202, 194); background-color: rgb(31, 36, 48); font-family: Consolas, &amp;quot;Courier New&amp;quot;, monospace; font-weight: normal; font-size: 14px; line-height: 19px;&quot;&gt;&lt;div&gt;&lt;span style=&quot;color: #73d0ff;&quot;&gt;MealsSummary&lt;/span&gt;&lt;/div&gt;&lt;/div&gt;&#xa;&#xa;" style="whiteSpace=wrap;html=1;rounded=0;" vertex="1" parent="1">
          <mxGeometry x="370" y="610" width="120" height="60" as="geometry" />
        </mxCell>
        <mxCell id="LFbSeWZXelefabh4vEKM-17" value="" style="edgeStyle=orthogonalEdgeStyle;rounded=0;orthogonalLoop=1;jettySize=auto;html=1;" edge="1" parent="1" source="LFbSeWZXelefabh4vEKM-14" target="LFbSeWZXelefabh4vEKM-16">
          <mxGeometry relative="1" as="geometry" />
        </mxCell>
        <mxCell id="LFbSeWZXelefabh4vEKM-43" style="edgeStyle=orthogonalEdgeStyle;rounded=0;orthogonalLoop=1;jettySize=auto;html=1;exitX=0;exitY=0.5;exitDx=0;exitDy=0;entryX=1;entryY=0.5;entryDx=0;entryDy=0;" edge="1" parent="1" source="LFbSeWZXelefabh4vEKM-14" target="LFbSeWZXelefabh4vEKM-42">
          <mxGeometry relative="1" as="geometry" />
        </mxCell>
        <mxCell id="LFbSeWZXelefabh4vEKM-14" value="&lt;div style=&quot;color: rgb(204, 202, 194); background-color: rgb(31, 36, 48); font-family: Consolas, &amp;quot;Courier New&amp;quot;, monospace; font-size: 14px; line-height: 19px;&quot;&gt;AvailableMeals&lt;/div&gt;" style="whiteSpace=wrap;html=1;rounded=0;" vertex="1" parent="1">
          <mxGeometry x="590" y="610" width="120" height="60" as="geometry" />
        </mxCell>
        <mxCell id="LFbSeWZXelefabh4vEKM-32" value="" style="edgeStyle=orthogonalEdgeStyle;rounded=0;orthogonalLoop=1;jettySize=auto;html=1;" edge="1" parent="1" source="LFbSeWZXelefabh4vEKM-16" target="LFbSeWZXelefabh4vEKM-31">
          <mxGeometry relative="1" as="geometry" />
        </mxCell>
        <mxCell id="LFbSeWZXelefabh4vEKM-16" value="&#xa;&lt;div style=&quot;color: rgb(204, 202, 194); background-color: rgb(31, 36, 48); font-family: Consolas, &amp;quot;Courier New&amp;quot;, monospace; font-weight: normal; font-size: 14px; line-height: 19px;&quot;&gt;&lt;div&gt;&lt;span style=&quot;color: #73d0ff;&quot;&gt;MealItem&lt;/span&gt;&lt;/div&gt;&lt;/div&gt;&#xa;&#xa;" style="whiteSpace=wrap;html=1;rounded=0;" vertex="1" parent="1">
          <mxGeometry x="590" y="710" width="120" height="60" as="geometry" />
        </mxCell>
        <mxCell id="LFbSeWZXelefabh4vEKM-48" value="" style="edgeStyle=orthogonalEdgeStyle;rounded=0;orthogonalLoop=1;jettySize=auto;html=1;" edge="1" parent="1" source="LFbSeWZXelefabh4vEKM-18" target="LFbSeWZXelefabh4vEKM-47">
          <mxGeometry relative="1" as="geometry" />
        </mxCell>
        <mxCell id="LFbSeWZXelefabh4vEKM-50" value="" style="edgeStyle=orthogonalEdgeStyle;rounded=0;orthogonalLoop=1;jettySize=auto;html=1;" edge="1" parent="1" source="LFbSeWZXelefabh4vEKM-18" target="LFbSeWZXelefabh4vEKM-49">
          <mxGeometry relative="1" as="geometry" />
        </mxCell>
        <mxCell id="LFbSeWZXelefabh4vEKM-18" value="&#xa;&lt;div style=&quot;color: rgb(204, 202, 194); background-color: rgb(31, 36, 48); font-family: Consolas, &amp;quot;Courier New&amp;quot;, monospace; font-weight: normal; font-size: 14px; line-height: 19px;&quot;&gt;&lt;div&gt;&lt;span style=&quot;color: #cccac2;&quot;&gt;HeaderCartButton&lt;/span&gt;&lt;/div&gt;&lt;/div&gt;&#xa;&#xa;" style="whiteSpace=wrap;html=1;rounded=0;" vertex="1" parent="1">
          <mxGeometry x="130" y="470" width="120" height="60" as="geometry" />
        </mxCell>
        <mxCell id="LFbSeWZXelefabh4vEKM-26" value="&#xa;&lt;div style=&quot;color: rgb(204, 202, 194); background-color: rgb(31, 36, 48); font-family: Consolas, &amp;quot;Courier New&amp;quot;, monospace; font-weight: normal; font-size: 14px; line-height: 19px;&quot;&gt;&lt;div&gt;&lt;span style=&quot;color: #cccac2;&quot;&gt;CartContext&lt;/span&gt;&lt;/div&gt;&lt;/div&gt;&#xa;&#xa;" style="whiteSpace=wrap;html=1;rounded=0;" vertex="1" parent="1">
          <mxGeometry x="480" y="180" width="120" height="60" as="geometry" />
        </mxCell>
        <mxCell id="LFbSeWZXelefabh4vEKM-28" value="&lt;div style=&quot;color: rgb(204, 202, 194); background-color: rgb(31, 36, 48); font-family: Consolas, &amp;quot;Courier New&amp;quot;, monospace; font-size: 14px; line-height: 19px;&quot;&gt;useReducer&lt;/div&gt;" style="whiteSpace=wrap;html=1;rounded=0;" vertex="1" parent="1">
          <mxGeometry x="480" y="250" width="120" height="60" as="geometry" />
        </mxCell>
        <mxCell id="LFbSeWZXelefabh4vEKM-45" value="" style="edgeStyle=orthogonalEdgeStyle;rounded=0;orthogonalLoop=1;jettySize=auto;html=1;" edge="1" parent="1" source="LFbSeWZXelefabh4vEKM-31" target="LFbSeWZXelefabh4vEKM-44">
          <mxGeometry relative="1" as="geometry" />
        </mxCell>
        <mxCell id="LFbSeWZXelefabh4vEKM-31" value="&#xa;&lt;div style=&quot;color: rgb(204, 202, 194); background-color: rgb(31, 36, 48); font-family: Consolas, &amp;quot;Courier New&amp;quot;, monospace; font-weight: normal; font-size: 14px; line-height: 19px;&quot;&gt;&lt;div&gt;&lt;span style=&quot;color: #cccac2;&quot;&gt;MealItemForm&lt;/span&gt;&lt;/div&gt;&lt;/div&gt;&#xa;&#xa;" style="whiteSpace=wrap;html=1;rounded=0;" vertex="1" parent="1">
          <mxGeometry x="590" y="850" width="120" height="60" as="geometry" />
        </mxCell>
        <mxCell id="LFbSeWZXelefabh4vEKM-35" value="" style="edgeStyle=orthogonalEdgeStyle;rounded=0;orthogonalLoop=1;jettySize=auto;html=1;" edge="1" parent="1" source="LFbSeWZXelefabh4vEKM-33" target="LFbSeWZXelefabh4vEKM-34">
          <mxGeometry relative="1" as="geometry" />
        </mxCell>
        <mxCell id="LFbSeWZXelefabh4vEKM-37" value="" style="edgeStyle=orthogonalEdgeStyle;rounded=0;orthogonalLoop=1;jettySize=auto;html=1;" edge="1" parent="1" source="LFbSeWZXelefabh4vEKM-33" target="LFbSeWZXelefabh4vEKM-36">
          <mxGeometry relative="1" as="geometry" />
        </mxCell>
        <mxCell id="LFbSeWZXelefabh4vEKM-33" value="Component" style="rounded=0;whiteSpace=wrap;html=1;" vertex="1" parent="1">
          <mxGeometry x="700" y="80" width="80" height="50" as="geometry" />
        </mxCell>
        <mxCell id="LFbSeWZXelefabh4vEKM-34" value="information" style="shape=document;whiteSpace=wrap;html=1;boundedLbl=1;rounded=0;" vertex="1" parent="1">
          <mxGeometry x="800" y="80" width="100" height="50" as="geometry" />
        </mxCell>
        <mxCell id="LFbSeWZXelefabh4vEKM-36" value="style" style="shape=document;whiteSpace=wrap;html=1;boundedLbl=1;rounded=0;" vertex="1" parent="1">
          <mxGeometry x="600" y="85" width="70" height="40" as="geometry" />
        </mxCell>
        <mxCell id="LFbSeWZXelefabh4vEKM-38" value="&lt;div style=&quot;color: rgb(204, 202, 194); background-color: rgb(31, 36, 48); font-family: Consolas, &amp;quot;Courier New&amp;quot;, monospace; font-size: 14px; line-height: 19px;&quot;&gt;useState&lt;/div&gt;" style="rounded=0;whiteSpace=wrap;html=1;" vertex="1" parent="1">
          <mxGeometry x="480" y="50" width="70" height="40" as="geometry" />
        </mxCell>
        <mxCell id="LFbSeWZXelefabh4vEKM-42" value="card" style="rounded=0;whiteSpace=wrap;html=1;" vertex="1" parent="1">
          <mxGeometry x="500" y="625" width="50" height="30" as="geometry" />
        </mxCell>
        <mxCell id="LFbSeWZXelefabh4vEKM-44" value="&#xa;&lt;div style=&quot;color: rgb(204, 202, 194); background-color: rgb(31, 36, 48); font-family: Consolas, &amp;quot;Courier New&amp;quot;, monospace; font-weight: normal; font-size: 14px; line-height: 19px;&quot;&gt;&lt;div&gt;&lt;span style=&quot;color: #cccac2;&quot;&gt;Input&lt;/span&gt;&lt;/div&gt;&lt;/div&gt;&#xa;&#xa;" style="whiteSpace=wrap;html=1;rounded=0;" vertex="1" parent="1">
          <mxGeometry x="510" y="860" width="50" height="40" as="geometry" />
        </mxCell>
        <mxCell id="LFbSeWZXelefabh4vEKM-47" value="&#xa;&lt;div style=&quot;color: rgb(204, 202, 194); background-color: rgb(31, 36, 48); font-family: Consolas, &amp;quot;Courier New&amp;quot;, monospace; font-weight: normal; font-size: 14px; line-height: 19px;&quot;&gt;&lt;div&gt;&lt;span style=&quot;color: #cccac2;&quot;&gt;CartContext&lt;/span&gt;&lt;/div&gt;&lt;/div&gt;&#xa;&#xa;" style="whiteSpace=wrap;html=1;rounded=0;" vertex="1" parent="1">
          <mxGeometry x="280" y="480" width="80" height="40" as="geometry" />
        </mxCell>
        <mxCell id="LFbSeWZXelefabh4vEKM-49" value="&#xa;&lt;div style=&quot;color: rgb(204, 202, 194); background-color: rgb(31, 36, 48); font-family: Consolas, &amp;quot;Courier New&amp;quot;, monospace; font-weight: normal; font-size: 14px; line-height: 19px;&quot;&gt;&lt;div&gt;&lt;span style=&quot;color: #cccac2;&quot;&gt;CartIcon&lt;/span&gt;&lt;/div&gt;&lt;/div&gt;&#xa;&#xa;" style="whiteSpace=wrap;html=1;rounded=0;" vertex="1" parent="1">
          <mxGeometry x="30" y="485" width="60" height="30" as="geometry" />
        </mxCell>
      </root>
    </mxGraphModel>
  </diagram>
</mxfile>
